<?xml version="1.0" encoding="UTF-8" standalone="no"?>
<svg
   width="21"
   height="23"
   viewBox="0 0 21 23"
   fill="none"
   version="1.1"
   id="svg2"
   sodipodi:docname="Bac.svg"
   inkscape:version="1.3 (0e150ed6c4, 2023-07-21)"
   xmlns:inkscape="http://www.inkscape.org/namespaces/inkscape"
   xmlns:sodipodi="http://sodipodi.sourceforge.net/DTD/sodipodi-0.dtd"
   xmlns="http://www.w3.org/2000/svg"
   xmlns:svg="http://www.w3.org/2000/svg">
  <defs
     id="defs2" />
  <sodipodi:namedview
     id="namedview2"
     pagecolor="#ffffff"
     bordercolor="#000000"
     borderopacity="0.25"
     inkscape:showpageshadow="2"
     inkscape:pageopacity="0.0"
     inkscape:pagecheckerboard="0"
     inkscape:deskcolor="#d1d1d1"
     inkscape:zoom="33.782609"
     inkscape:cx="10.493565"
     inkscape:cy="11.5"
     inkscape:window-width="1920"
     inkscape:window-height="991"
     inkscape:window-x="-9"
     inkscape:window-y="-9"
     inkscape:window-maximized="1"
     inkscape:current-layer="svg2" />
  <path
     style="color:#000000;fill:#36398a;stroke-linecap:round;stroke-linejoin:round;-inkscape-stroke:none"
     d="M 1.5996094,0.25 C 1.2418685,0.25 0.89750716,0.39153286 0.64453125,0.64453125 0.39153286,0.89750716 0.25,1.2418685 0.25,1.5996094 V 20.400391 c 0,0.357748 0.1417688,0.700205 0.39453125,0.953125 a 0.750075,0.750075 0 0 0 0,0.002 C 0.89751511,21.608408 1.2419,21.75 1.5996094,21.75 H 10 A 0.75,0.75 0 0 0 10.75,21 0.75,0.75 0 0 0 10,20.25 H 1.75 V 1.75 H 13.189453 L 16.25,4.8105469 V 11 A 0.75,0.75 0 0 0 17,11.75 0.75,0.75 0 0 0 17.75,11 V 4.75 4.7480469 C 17.749969,4.5703358 17.713987,4.3954343 17.646484,4.2324219 17.57852,4.0682951 17.478942,3.9183499 17.353516,3.7929688 L 14.207031,0.64648437 C 13.954319,0.39343521 13.609594,0.25031471 13.251953,0.25 Z M 5,4.25 A 0.75,0.75 0 0 0 4.25,5 0.75,0.75 0 0 0 5,5.75 H 9 A 0.75,0.75 0 0 0 9.75,5 0.75,0.75 0 0 0 9,4.25 Z m 0,4 A 0.75,0.75 0 0 0 4.25,9 0.75,0.75 0 0 0 5,9.75 h 8 A 0.75,0.75 0 0 0 13.75,9 0.75,0.75 0 0 0 13,8.25 Z m 0,4 A 0.75,0.75 0 0 0 4.25,13 0.75,0.75 0 0 0 5,13.75 H 8 A 0.75,0.75 0 0 0 8.75,13 0.75,0.75 0 0 0 8,12.25 Z"
     id="path1" />
  <path
     style="color:#000000;fill:#36398a;stroke-linecap:round;stroke-linejoin:round;-inkscape-stroke:none"
     d="M 13,0.25 A 0.75,0.75 0 0 0 12.25,1 v 3.4003906 c 0,0.3577094 0.141592,0.7020943 0.394531,0.9550781 a 0.750075,0.750075 0 0 0 0.002,0 C 12.899404,5.6082312 13.241861,5.75 13.599609,5.75 H 17 A 0.75,0.75 0 0 0 17.75,5 0.75,0.75 0 0 0 17,4.25 H 13.75 V 1 A 0.75,0.75 0 0 0 13,0.25 Z m 2.824219,13.148438 -2.556641,0.648437 c -0.293822,0.07396 -0.552717,0.245523 -0.736328,0.486328 -0.183772,0.241315 -0.280491,0.538248 -0.273437,0.841797 a 0.750075,0.750075 0 0 0 0,0.0059 c 0.09027,3.02185 1.028628,4.883752 2.003906,5.960938 0.975278,1.077186 2.044922,1.382812 2.044922,1.382812 a 0.750075,0.750075 0 0 0 0.386718,0 c 0,0 1.069644,-0.305626 2.044922,-1.382812 0.975278,-1.077186 1.913639,-2.939088 2.003906,-5.960938 0.01833,-0.627681 -0.409851,-1.181122 -1.007812,-1.333984 a 0.750075,0.750075 0 0 0 -0.002,0 l -2.556641,-0.648437 c -0.44395,-0.112706 -0.907612,-0.112706 -1.351562,0 z m 0.36914,1.453125 c 0.20205,-0.05129 0.411232,-0.05129 0.613282,0 l 2.414062,0.613281 c -0.108238,2.631548 -0.880101,4.080921 -1.59375,4.86914 -0.621363,0.68629 -0.987356,0.758888 -1.126953,0.802735 -0.139597,-0.04385 -0.50559,-0.116445 -1.126953,-0.802735 -0.713649,-0.788219 -1.485512,-2.237592 -1.59375,-4.86914 z"
     id="path2" />
</svg>
