<svg width="26" height="33" viewBox="0 0 26 33" fill="none" xmlns="http://www.w3.org/2000/svg">
<path d="M25.2353 25.5819L25.8471 26.4C25.9323 26.514 25.9842 26.6496 25.9969 26.7915C26.0097 26.9335 25.9828 27.0762 25.9193 27.2037C25.8558 27.3312 25.7581 27.4384 25.6373 27.5133C25.5165 27.5882 25.3773 27.6279 25.2353 27.6279H0.764706C0.622691 27.6279 0.483482 27.5882 0.362677 27.5133C0.241871 27.4384 0.144243 27.3312 0.0807324 27.2037C0.0172214 27.0762 -0.00966344 26.9335 0.00309031 26.7915C0.015844 26.6496 0.0677324 26.514 0.152941 26.4L0.764706 25.5819V12.2791C0.764706 9.02246 2.05378 5.89923 4.34834 3.59646C6.6429 1.29368 9.755 0 13 0C16.245 0 19.3571 1.29368 21.6517 3.59646C23.9462 5.89923 25.2353 9.02246 25.2353 12.2791V25.5819ZM9.17647 29.1628H16.8235C16.8235 30.1805 16.4207 31.1565 15.7036 31.8761C14.9866 32.5957 14.0141 33 13 33C11.9859 33 11.0134 32.5957 10.2964 31.8761C9.5793 31.1565 9.17647 30.1805 9.17647 29.1628Z" fill="url(#paint0_linear_96_247)"/>
<defs>
<linearGradient id="paint0_linear_96_247" x1="13" y1="0" x2="13" y2="33" gradientUnits="userSpaceOnUse">
<stop stop-color="#539DF3"/>
<stop offset="1" stop-color="#36398A"/>
</linearGradient>
</defs>
</svg>
