<svg width="20" height="24" viewBox="0 0 20 24" fill="none" xmlns="http://www.w3.org/2000/svg">
<path d="M3.5 6.5V10H2C1.46957 10 0.960859 10.2107 0.585786 10.5858C0.210714 10.9609 0 11.4696 0 12L0 22C0 22.5304 0.210714 23.0391 0.585786 23.4142C0.960859 23.7893 1.46957 24 2 24H18C18.5304 24 19.0391 23.7893 19.4142 23.4142C19.7893 23.0391 20 22.5304 20 22V12C20 11.4696 19.7893 10.9609 19.4142 10.5858C19.0391 10.2107 18.5304 10 18 10H16.5V6.5C16.5 4.77609 15.8152 3.12279 14.5962 1.90381C13.3772 0.684819 11.7239 0 10 0C8.27609 0 6.62279 0.684819 5.40381 1.90381C4.18482 3.12279 3.5 4.77609 3.5 6.5ZM6 10V6.5C6 5.43913 6.42143 4.42172 7.17157 3.67157C7.92172 2.92143 8.93913 2.5 10 2.5C11.0609 2.5 12.0783 2.92143 12.8284 3.67157C13.5786 4.42172 14 5.43913 14 6.5V10H6ZM8 15.5C8.00007 15.1535 8.09016 14.813 8.26143 14.5118C8.43269 14.2106 8.67927 13.9591 8.97699 13.7819C9.27472 13.6046 9.61337 13.5078 9.95978 13.5008C10.3062 13.4939 10.6485 13.577 10.9531 13.7421C11.2577 13.9072 11.5142 14.1486 11.6974 14.4427C11.8807 14.7368 11.9844 15.0734 11.9984 15.4196C12.0124 15.7658 11.9362 16.1097 11.7773 16.4176C11.6184 16.7255 11.3823 16.9868 11.092 17.176L11.084 17.181C11.084 17.181 11.279 18.361 11.499 19.751V19.752C11.499 19.9506 11.4201 20.1412 11.2796 20.2816C11.1392 20.4221 10.9486 20.501 10.75 20.501H9.248C9.04935 20.501 8.85884 20.4221 8.71838 20.2816C8.57791 20.1412 8.499 19.9506 8.499 19.752V19.751L8.914 17.181C8.63321 16.9997 8.40229 16.751 8.24229 16.4575C8.08229 16.1641 7.99831 15.8352 7.998 15.501L8 15.5Z" fill="#36398A"/>
</svg>
