<?xml version="1.0" encoding="UTF-8" standalone="no"?>
<svg
   width="20"
   height="22"
   viewBox="0 0 20 22"
   fill="none"
   version="1.1"
   id="svg8"
   sodipodi:docname="Calc.svg"
   inkscape:version="1.3 (0e150ed6c4, 2023-07-21)"
   xmlns:inkscape="http://www.inkscape.org/namespaces/inkscape"
   xmlns:sodipodi="http://sodipodi.sourceforge.net/DTD/sodipodi-0.dtd"
   xmlns="http://www.w3.org/2000/svg"
   xmlns:svg="http://www.w3.org/2000/svg">
  <defs
     id="defs8" />
  <sodipodi:namedview
     id="namedview8"
     pagecolor="#ffffff"
     bordercolor="#000000"
     borderopacity="0.25"
     inkscape:showpageshadow="2"
     inkscape:pageopacity="0.0"
     inkscape:pagecheckerboard="0"
     inkscape:deskcolor="#d1d1d1"
     inkscape:zoom="35.318182"
     inkscape:cx="10.009009"
     inkscape:cy="11"
     inkscape:window-width="1920"
     inkscape:window-height="991"
     inkscape:window-x="-9"
     inkscape:window-y="-9"
     inkscape:window-maximized="1"
     inkscape:current-layer="svg8" />
  <path
     style="color:#000000;fill:#36398a;stroke-linecap:round;-inkscape-stroke:none"
     d="M 10,0.25 C 7.8790021,0.25 6.2704479,0.24440297 4.9511719,0.44140625 3.6318958,0.63840953 2.5526782,1.0821441 1.7597656,1.9628906 0.96700811,2.8440665 0.59396995,3.9853564 0.41992188,5.4238281 0.2458738,6.8622998 0.25,8.6430024 0.25,11 c 0,2.356998 -0.004128,4.137689 0.16992188,5.576172 0.17404939,1.438482 0.54867935,2.580565 1.34179682,3.460937 0.7926885,0.88041 1.8708261,1.324424 3.1894532,1.521485 C 6.2704013,21.755745 7.8785021,21.75 10,21.75 c 2.120998,0 3.729492,0.0057 5.048828,-0.191406 1.319336,-0.197147 2.398554,-0.640203 3.191406,-1.521485 0.792909,-0.880742 1.165794,-2.022577 1.339844,-3.460937 C 19.754129,15.137811 19.75,13.356998 19.75,11 A 0.75,0.75 0 0 0 19,10.25 0.75,0.75 0 0 0 18.25,11 c 0,2.356998 -0.0047,4.111848 -0.160156,5.396484 -0.155449,1.284637 -0.439754,2.053463 -0.964844,2.636719 -0.525146,0.583717 -1.167166,0.871913 -2.298828,1.041016 C 13.69451,20.243322 12.120998,20.25 10,20.25 7.8785021,20.25 6.3053462,20.243317 5.1738281,20.074219 4.04231,19.90512 3.4002093,19.61699 2.875,19.033203 2.3501188,18.450577 2.0656065,17.681249 1.9101562,16.396484 1.754706,15.11172 1.75,13.356998 1.75,11 1.75,8.6430024 1.7547047,6.8882912 1.9101562,5.6035156 2.0656078,4.3187401 2.3497588,3.5486664 2.875,2.9648438 3.4000862,2.3815918 4.0421066,2.0928245 5.1738281,1.9238281 6.3055496,1.7548318 7.8790021,1.75 10,1.75 c 2.121498,0 3.694594,0.00484 4.826172,0.1738281 1.131578,0.1689922 1.773679,0.4576936 2.298828,1.0410157 0.698132,0.7762336 0.980537,1.928286 1.076172,4.0683593 A 0.75,0.75 0 0 0 18.984375,7.75 0.75,0.75 0 0 0 19.699219,6.9667969 C 19.598854,4.7208746 19.294101,3.1346551 18.240234,1.9628906 17.447385,1.0822142 16.367998,0.63841372 15.048828,0.44140625 13.729659,0.24439878 12.121498,0.25 10,0.25 Z"
     id="path1" />
  <path
     style="color:#000000;fill:#36398a;-inkscape-stroke:none"
     d="M 7,4.25 C 6.5360005,4.25 6.2547941,4.2368479 5.9160156,4.328125 5.5348572,4.4304002 5.187268,4.6310763 4.9082031,4.9101562 4.6291232,5.1892212 4.4284471,5.5368103 4.3261719,5.9179687 4.2361209,6.2552186 4.25,6.5350005 4.25,7 4.25,7.4639995 4.2368479,7.7452059 4.328125,8.0839844 4.4304002,8.4651428 4.6310763,8.812732 4.9101562,9.0917969 5.1892212,9.3708768 5.5368103,9.5715529 5.9179687,9.6738281 6.2552186,9.7638791 6.5350005,9.75 7,9.75 h 6 c 0.463169,0 0.745021,0.013356 1.083984,-0.078125 0.381094,-0.10227 0.728685,-0.3028131 1.007813,-0.5820312 C 15.370992,8.8107235 15.571562,8.4630989 15.673828,8.0820313 15.764047,7.744151 15.75,7.4639995 15.75,7 15.75,6.5360005 15.763152,6.2547941 15.671875,5.9160156 15.569609,5.534948 15.369039,5.1873234 15.089844,4.9082031 14.810716,4.628985 14.463125,4.4284419 14.082031,4.3261719 13.744781,4.2361209 13.465,4.25 13,4.25 Z m 0,1.5 h 6 c 0.465,0 0.650563,0.013442 0.695313,0.025391 0.126452,0.034246 0.241518,0.1008636 0.333984,0.1933594 0.093,0.092979 0.159225,0.2087456 0.193359,0.3359375 l 0.002,0.00195 C 14.237332,6.3538617 14.25,6.5360005 14.25,7 c 0,0.4626979 -0.01363,0.6485667 -0.02539,0.6933594 -0.03413,0.1271919 -0.100355,0.2429581 -0.193359,0.3359375 -0.09287,0.092901 -0.208832,0.1592495 -0.335937,0.1933594 l -0.002,0.00195 C 13.649139,8.2365857 13.464,8.25 13,8.25 H 7 c -0.4636951,0 -0.6479507,-0.013466 -0.6933594,-0.025391 h -0.00195 C 6.17824,8.1903687 6.0633315,8.1238834 5.9707031,8.03125 5.8776634,7.9382153 5.8114484,7.8224136 5.7773437,7.6953125 l -0.00195,-0.00195 C 5.7626678,7.6461383 5.75,7.4639995 5.75,7 c 0,-0.4636951 0.013466,-0.6479507 0.025391,-0.6933594 v -0.00195 C 5.8096313,6.17824 5.8761166,6.0633315 5.96875,5.9707031 6.0617847,5.8776634 6.1775864,5.8114484 6.3046875,5.7773437 l 0.00195,-0.00195 C 6.3538617,5.7626678 6.5360005,5.75 7,5.75 Z"
     id="path2" />
  <path
     d="M6 13C6.55228 13 7 12.5523 7 12C7 11.4477 6.55228 11 6 11C5.44772 11 5 11.4477 5 12C5 12.5523 5.44772 13 6 13Z"
     fill="#36398A"
     id="path3" />
  <path
     d="M6 17C6.55228 17 7 16.5523 7 16C7 15.4477 6.55228 15 6 15C5.44772 15 5 15.4477 5 16C5 16.5523 5.44772 17 6 17Z"
     fill="#36398A"
     id="path4" />
  <path
     d="M10 13C10.5523 13 11 12.5523 11 12C11 11.4477 10.5523 11 10 11C9.44772 11 9 11.4477 9 12C9 12.5523 9.44772 13 10 13Z"
     fill="#36398A"
     id="path5" />
  <path
     d="M10 17C10.5523 17 11 16.5523 11 16C11 15.4477 10.5523 15 10 15C9.44772 15 9 15.4477 9 16C9 16.5523 9.44772 17 10 17Z"
     fill="#36398A"
     id="path6" />
  <path
     d="M14 13C14.5523 13 15 12.5523 15 12C15 11.4477 14.5523 11 14 11C13.4477 11 13 11.4477 13 12C13 12.5523 13.4477 13 14 13Z"
     fill="#36398A"
     id="path7" />
  <path
     d="M14 17C14.5523 17 15 16.5523 15 16C15 15.4477 14.5523 15 14 15C13.4477 15 13 15.4477 13 16C13 16.5523 13.4477 17 14 17Z"
     fill="#36398A"
     id="path8" />
</svg>
