<?xml version="1.0" encoding="UTF-8" standalone="no"?>
<svg
   width="22"
   height="18"
   viewBox="0 0 22 18"
   fill="none"
   version="1.1"
   id="svg1"
   sodipodi:docname="Card.svg"
   inkscape:version="1.3 (0e150ed6c4, 2023-07-21)"
   xmlns:inkscape="http://www.inkscape.org/namespaces/inkscape"
   xmlns:sodipodi="http://sodipodi.sourceforge.net/DTD/sodipodi-0.dtd"
   xmlns="http://www.w3.org/2000/svg"
   xmlns:svg="http://www.w3.org/2000/svg">
  <defs
     id="defs1" />
  <sodipodi:namedview
     id="namedview1"
     pagecolor="#ffffff"
     bordercolor="#000000"
     borderopacity="0.25"
     inkscape:showpageshadow="2"
     inkscape:pageopacity="0.0"
     inkscape:pagecheckerboard="0"
     inkscape:deskcolor="#d1d1d1"
     inkscape:zoom="43.166667"
     inkscape:cx="10.992278"
     inkscape:cy="9"
     inkscape:window-width="1920"
     inkscape:window-height="991"
     inkscape:window-x="-9"
     inkscape:window-y="-9"
     inkscape:window-maximized="1"
     inkscape:current-layer="svg1" />
  <path
     style="color:#000000;fill:#36398a;stroke-linecap:round;-inkscape-stroke:none"
     d="M 9,0.25 C 7.1145019,0.25 5.6859639,0.24441223 4.5117187,0.40234375 3.3385204,0.56013449 2.3701521,0.91352676 1.6425781,1.640625 0.91416084,2.3684208 0.56027527,3.3374736 0.40234375,4.5117187 c -0.0812334,0.603983 -0.060184,1.5423014 -0.078125,2.3085938 A 0.75,0.75 0 0 0 0.25,7 0.75,0.75 0 0 0 0.3125,7.1523437 C 0.30242736,7.7879275 0.25,8.2238145 0.25,9 c 0,1.885498 -0.005588,3.314036 0.15234375,4.488281 0.15779074,1.173199 0.51118301,2.141567 1.23828125,2.869141 3.913e-4,3.92e-4 0.00156,-3.92e-4 0.00195,0 3.915e-4,3.91e-4 -3.916e-4,0.0016 0,0.002 0.727574,0.727098 1.6959423,1.080491 2.8691406,1.238281 C 5.6859639,17.755588 7.1145019,17.75 9,17.75 h 4 c 1.885498,0 3.314036,0.0056 4.488281,-0.152344 1.174245,-0.157931 2.143298,-0.511817 2.871094,-1.240234 0.811477,-0.811444 1.150725,-1.909085 1.285156,-3.285156 a 0.75,0.75 0 0 0 -0.673828,-0.81836 0.75,0.75 0 0 0 -0.818359,0.673828 c -0.119461,1.22283 -0.358396,1.874778 -0.853516,2.369141 h -0.002 v 0.002 c -0.443203,0.443582 -1.00356,0.675479 -2.007813,0.810547 C 16.28481,16.244443 14.885498,16.25 13,16.25 H 9 c -1.8854981,0 -3.2848098,-0.0056 -4.2890625,-0.140625 C 3.7066848,15.974307 3.1463281,15.74241 2.703125,15.298828 v -0.002 h -0.00195 C 2.2575903,14.853672 2.0256932,14.293315 1.890625,13.289063 1.7555568,12.28481 1.75,10.885498 1.75,9 1.75,8.4504919 1.7871018,8.2191689 1.7910156,7.75 H 6 A 0.75,0.75 0 0 0 6.75,7 0.75,0.75 0 0 0 6,6.25 H 1.8398437 C 1.8605507,5.7836946 1.8421576,5.0713002 1.890625,4.7109375 2.0256932,3.7066848 2.2575903,3.1463281 2.7011719,2.703125 h 0.00195 v -0.00195 C 3.1463281,2.2575903 3.7066848,2.0256932 4.7109375,1.890625 5.7151902,1.7555568 7.1145019,1.75 9,1.75 h 4 c 1.885498,0 3.28481,0.00556 4.289062,0.140625 1.004253,0.1350682 1.56461,0.3669653 2.007813,0.8105469 v 0.00195 h 0.002 c 0.443582,0.4432031 0.675479,1.0035598 0.810547,2.0078125 0.04847,0.3603627 0.03007,1.0727571 0.05078,1.5390625 H 10 A 0.75,0.75 0 0 0 9.25,7 0.75,0.75 0 0 0 10,7.75 H 20.208984 C 20.212898,8.2191689 20.25,8.4504919 20.25,9 A 0.75,0.75 0 0 0 21,9.75 0.75,0.75 0 0 0 21.75,9 c 0,-0.7761855 -0.05243,-1.2120725 -0.0625,-1.8476563 A 0.75,0.75 0 0 0 21.75,7 0.75,0.75 0 0 0 21.671875,6.6796875 C 21.65263,5.9708173 21.673942,5.0789185 21.597656,4.5117187 21.439866,3.3385204 21.086473,2.3701521 20.359375,1.6425781 19.631579,0.91416084 18.662526,0.56027527 17.488281,0.40234375 16.314036,0.24441223 14.885498,0.25 13,0.25 Z m -4,12 A 0.75,0.75 0 0 0 4.25,13 0.75,0.75 0 0 0 5,13.75 H 9 A 0.75,0.75 0 0 0 9.75,13 0.75,0.75 0 0 0 9,12.25 Z m 6.5,0 A 0.75,0.75 0 0 0 10.75,13 0.75,0.75 0 0 0 11.5,13.75 H 13 A 0.75,0.75 0 0 0 13.75,13 0.75,0.75 0 0 0 13,12.25 Z"
     id="path1" />
</svg>
