<?xml version="1.0" encoding="UTF-8" standalone="no"?>
<svg
   width="23"
   height="21"
   viewBox="0 0 23 21"
   fill="none"
   version="1.1"
   id="svg1"
   sodipodi:docname="Chats.svg"
   inkscape:version="1.3 (0e150ed6c4, 2023-07-21)"
   xmlns:inkscape="http://www.inkscape.org/namespaces/inkscape"
   xmlns:sodipodi="http://sodipodi.sourceforge.net/DTD/sodipodi-0.dtd"
   xmlns="http://www.w3.org/2000/svg"
   xmlns:svg="http://www.w3.org/2000/svg">
  <defs
     id="defs1" />
  <sodipodi:namedview
     id="namedview1"
     pagecolor="#ffffff"
     bordercolor="#000000"
     borderopacity="0.25"
     inkscape:showpageshadow="2"
     inkscape:pageopacity="0.0"
     inkscape:pagecheckerboard="0"
     inkscape:deskcolor="#d1d1d1"
     inkscape:zoom="37"
     inkscape:cx="11.5"
     inkscape:cy="10.5"
     inkscape:window-width="1920"
     inkscape:window-height="991"
     inkscape:window-x="-9"
     inkscape:window-y="-9"
     inkscape:window-maximized="1"
     inkscape:current-layer="svg1" />
  <path
     style="color:#000000;fill:#484c52;-inkscape-stroke:none"
     d="M 11.099609,0 C 4.9889246,0 0.09960937,4.4530561 0.09960937,9.8457031 c 0,2.4647569 1.02312593,4.7402099 2.70898443,6.4687499 -0.096939,1.038529 -0.3637422,2.179829 -0.6914063,3.171875 l -0.3164063,0.960938 0.9667969,0.4375 0.5058594,-0.105469 c 2.377402,-0.497806 3.8157614,-1.131472 4.5253906,-1.496094 l -0.1914062,0.941406 c 0.043297,0.01181 0.089415,0.0062 0.1328125,0.01758 l -0.00195,0.0098 3.2285158,0.429688 v -0.0098 c 0.04546,4.04e-4 0.08929,0.01765 0.134766,0.01758 l 0.06641,-1.011719 c 6.076587,-0.03516 10.93164,-4.460766 10.93164,-9.8320309 C 22.099609,4.4530449 17.210175,0 11.099609,0 Z m 0,2 c 5.148623,0 9,3.6712109 9,7.8457031 0,4.1745149 -3.851374,7.8437499 -9,7.8437499 h -0.002 C 10.18675,17.690819 9.2793687,17.570398 8.3984375,17.330078 L 7.6425781,17.125 6.9492187,17.484375 C 6.6155539,17.657619 5.3772199,18.006215 4.40625,18.316406 4.5425272,17.703802 4.7428035,17.121131 4.8007812,16.5 L 4.8867187,15.580078 4.2402344,14.917969 C 2.8807959,13.524112 2.0996094,11.761342 2.0996094,9.8457031 2.0996094,5.6711997 5.9508454,2 11.099609,2 Z m -9.3124996,18.488281 -0.00195,0.0059 0.4609376,0.208984 -0.4667969,-0.191406 -0.2050782,0.623047 1.1113282,-0.232422 0.8867187,0.402343 c 0.015626,-0.03233 0.016152,-0.0362 0.019531,-0.04492 1.777e-4,-4.59e-4 0.0018,-0.0015 0.00195,-0.002 0.00126,-0.0033 0.00773,-0.01933 0.00781,-0.01953 l -0.6386719,-0.263672 0.5625,0.25586 -0.8105468,-0.333985 0.039063,-0.0078 z"
     id="path1" />
</svg>
