<svg width="27" height="24" viewBox="0 0 27 24" fill="none" xmlns="http://www.w3.org/2000/svg">
<path d="M6.75 5.33334C7.1325 5.33334 7.45335 5.46133 7.71255 5.71733C7.97175 5.97334 8.1009 6.28978 8.1 6.66667C8.1 7.04445 7.9704 7.36133 7.7112 7.61733C7.452 7.87333 7.1316 8.00089 6.75 8C6.3675 8 6.04665 7.872 5.78745 7.616C5.52825 7.36 5.3991 7.04356 5.4 6.66667C5.4 6.28889 5.5296 5.972 5.7888 5.716C6.048 5.46 6.3684 5.33245 6.75 5.33334ZM5.4 10.6667H8.1V18.6667H5.4V10.6667ZM12.15 5.33334H21.6V8H12.15V5.33334ZM12.15 10.6667H21.6V13.3333H12.15V10.6667ZM12.15 16H21.6V18.6667H12.15V16ZM2.7 3.8147e-06C1.9575 3.8147e-06 1.32165 0.261335 0.792452 0.784002C0.263252 1.30667 -0.000897708 1.93423 2.29202e-06 2.66667V21.3333C2.29202e-06 22.0667 0.264602 22.6947 0.793802 23.2173C1.323 23.74 1.9584 24.0009 2.7 24H24.3C25.0425 24 25.6783 23.7387 26.2075 23.216C26.7367 22.6933 27.0009 22.0658 27 21.3333V2.66667C27 1.93334 26.7354 1.30534 26.2062 0.782669C25.677 0.260002 25.0416 -0.00088501 24.3 3.8147e-06H2.7Z" fill="white"/>
</svg>
