<?xml version="1.0" encoding="UTF-8" standalone="no"?>
<svg
   width="22"
   height="23"
   viewBox="0 0 22 23"
   fill="none"
   version="1.1"
   id="svg10"
   sodipodi:docname="Person.svg"
   inkscape:version="1.3 (0e150ed6c4, 2023-07-21)"
   xmlns:inkscape="http://www.inkscape.org/namespaces/inkscape"
   xmlns:sodipodi="http://sodipodi.sourceforge.net/DTD/sodipodi-0.dtd"
   xmlns="http://www.w3.org/2000/svg"
   xmlns:svg="http://www.w3.org/2000/svg">
  <sodipodi:namedview
     id="namedview10"
     pagecolor="#ffffff"
     bordercolor="#000000"
     borderopacity="0.25"
     inkscape:showpageshadow="2"
     inkscape:pageopacity="0.0"
     inkscape:pagecheckerboard="0"
     inkscape:deskcolor="#d1d1d1"
     inkscape:zoom="33.782609"
     inkscape:cx="10.996782"
     inkscape:cy="11.5"
     inkscape:window-width="1920"
     inkscape:window-height="991"
     inkscape:window-x="-9"
     inkscape:window-y="-9"
     inkscape:window-maximized="1"
     inkscape:current-layer="svg10" />
  <path
     d="M1.9668 22.0002V20.8335C1.9668 16.9675 5.1008 13.8335 8.9668 13.8335H13.6335C17.4994 13.8335 20.6335 16.9675 20.6335 20.8335V22.0002"
     fill="url(#paint0_linear_96_271)"
     id="path1" />
  <path
     style="color:#000000;fill:#36398a;stroke-linecap:round;-inkscape-stroke:none"
     d="m 8.9667969,12.833984 c -4.4064336,0 -8.00000003,3.593567 -8.00000002,8 V 22 a 1,1 0 0 0 1.00000002,1 1,1 0 0 0 1,-1 v -1.166016 c 0,-3.325558 2.6744413,-6 6,-6 h 4.6660161 c 3.325444,0 5.999999,2.674459 5.999999,6 V 22 a 1,1 0 0 0 1,1 1,1 0 0 0 1,-1 v -1.166016 c 0,-4.40645 -3.593652,-8 -7.999999,-8 z"
     id="path2" />
  <g
     id="path3">
    <path
       style="color:#000000;fill:url(#paint1_linear_96_271);stroke-linecap:round;-inkscape-stroke:none"
       d="M 11.3002,10.3333 C 8.72288,10.3333 6.63354,8.244 6.63354,5.66667 6.63354,3.08934 8.72288,1 11.3002,1 c 2.5773,0 4.6667,2.08934 4.6667,4.66667 0,2.57733 -2.0894,4.66663 -4.6667,4.66663 z"
       id="path10" />
    <path
       style="color:#000000;fill:#36398a;stroke-linecap:round;-inkscape-stroke:none"
       d="M 11.300781,0 C 8.1830218,0 5.6328125,2.5482483 5.6328125,5.6660156 c 0,3.1177673 2.5502197,5.6679684 5.6679685,5.6679684 3.117734,0 5.666016,-2.5501855 5.666016,-5.6679684 C 16.966797,2.5482328 14.418525,0 11.300781,0 Z m 0,2 c 2.036851,0 3.666016,1.6291436 3.666016,3.6660156 0,2.036872 -1.629154,3.6679688 -3.666016,3.6679688 -2.0368855,0 -3.6679685,-1.6310812 -3.6679685,-3.6679688 C 7.6328125,3.6291281 9.2639058,2 11.300781,2 Z"
       id="path11" />
  </g>
  <defs
     id="defs10">
    <linearGradient
       id="paint0_linear_96_271"
       x1="11.3001"
       y1="13.8335"
       x2="11.3001"
       y2="22.0002"
       gradientUnits="userSpaceOnUse">
      <stop
         stop-color="white"
         stop-opacity="0"
         id="stop3" />
      <stop
         offset="0.411458"
         stop-color="white"
         stop-opacity="0"
         id="stop4" />
      <stop
         offset="0.411558"
         stop-color="#FBFDFE"
         stop-opacity="0"
         id="stop5" />
      <stop
         offset="1"
         stop-color="#387DBF"
         id="stop6" />
    </linearGradient>
    <linearGradient
       id="paint1_linear_96_271"
       x1="11.3002"
       y1="1"
       x2="11.3002"
       y2="10.3333"
       gradientUnits="userSpaceOnUse">
      <stop
         stop-color="white"
         stop-opacity="0"
         id="stop7" />
      <stop
         offset="0.411458"
         stop-color="white"
         stop-opacity="0"
         id="stop8" />
      <stop
         offset="0.411558"
         stop-color="#FBFDFE"
         stop-opacity="0"
         id="stop9" />
      <stop
         offset="1"
         stop-color="#387DBF"
         id="stop10" />
    </linearGradient>
  </defs>
</svg>
