<?xml version="1.0" encoding="UTF-8" standalone="no"?>
<svg
   width="26"
   height="27"
   viewBox="0 0 26 27"
   fill="none"
   version="1.1"
   id="svg1"
   sodipodi:docname="Resources.svg"
   inkscape:version="1.3 (0e150ed6c4, 2023-07-21)"
   xmlns:inkscape="http://www.inkscape.org/namespaces/inkscape"
   xmlns:sodipodi="http://sodipodi.sourceforge.net/DTD/sodipodi-0.dtd"
   xmlns="http://www.w3.org/2000/svg"
   xmlns:svg="http://www.w3.org/2000/svg">
  <defs
     id="defs1" />
  <sodipodi:namedview
     id="namedview1"
     pagecolor="#ffffff"
     bordercolor="#000000"
     borderopacity="0.25"
     inkscape:showpageshadow="2"
     inkscape:pageopacity="0.0"
     inkscape:pagecheckerboard="0"
     inkscape:deskcolor="#d1d1d1"
     inkscape:zoom="28.777778"
     inkscape:cx="13.013514"
     inkscape:cy="13.5"
     inkscape:window-width="1920"
     inkscape:window-height="991"
     inkscape:window-x="-9"
     inkscape:window-y="-9"
     inkscape:window-maximized="1"
     inkscape:current-layer="svg1" />
  <path
     style="color:#000000;fill:#484c52;-inkscape-stroke:none"
     d="M 12.699219,0.87304688 12.240234,1.1132812 0.02929688,7.4472656 5.8613281,10.474609 0.02929688,13.5 5.8613281,16.527344 0.02929688,19.552734 12.699219,26.126953 25.371094,19.552734 19.537109,16.527344 25.371094,13.5 19.537109,10.474609 25.371094,7.4472656 Z m 0,2.25195312 8.330078,4.3222656 -8.330078,4.3203124 -8.3281253,-4.3203124 z m 4.882812,8.363281 -0.0918,0.175782 L 21.03125,13.5 12.699219,17.820312 4.3691406,13.5 l 3.5410156,-1.835937 -0.089844,-0.173829 4.8789065,2.53125 z m 0,6.052735 -0.0918,0.175781 3.539063,1.835937 -8.330078,4.320313 -8.3281253,-4.320313 3.5390625,-1.835937 -0.089844,-0.173828 4.8789065,2.53125 z"
     id="path1" />
</svg>
