<?xml version="1.0" encoding="UTF-8" standalone="no"?>
<svg
   width="23"
   height="23"
   viewBox="0 0 23 23"
   fill="none"
   version="1.1"
   id="svg1"
   sodipodi:docname="Security.svg"
   inkscape:version="1.3 (0e150ed6c4, 2023-07-21)"
   xmlns:inkscape="http://www.inkscape.org/namespaces/inkscape"
   xmlns:sodipodi="http://sodipodi.sourceforge.net/DTD/sodipodi-0.dtd"
   xmlns="http://www.w3.org/2000/svg"
   xmlns:svg="http://www.w3.org/2000/svg">
  <defs
     id="defs1" />
  <sodipodi:namedview
     id="namedview1"
     pagecolor="#ffffff"
     bordercolor="#000000"
     borderopacity="0.25"
     inkscape:showpageshadow="2"
     inkscape:pageopacity="0.0"
     inkscape:pagecheckerboard="0"
     inkscape:deskcolor="#d1d1d1"
     inkscape:zoom="33.782609"
     inkscape:cx="11.5"
     inkscape:cy="11.5"
     inkscape:window-width="1920"
     inkscape:window-height="991"
     inkscape:window-x="-9"
     inkscape:window-y="-9"
     inkscape:window-maximized="1"
     inkscape:current-layer="svg1" />
  <path
     style="color:#000000;fill:#36398a;stroke-linecap:round;stroke-linejoin:round;-inkscape-stroke:none"
     d="M 2.6152344,0.5 C 2.0544613,0.5 1.5157393,0.72275138 1.1191406,1.1191406 0.72253329,1.5155254 0.5,2.0545501 0.5,2.6152344 v 4.84375 c -0.001557,3.2267496 0.9769045,6.3792416 2.8046875,9.0390626 1.8276355,2.659606 4.4200718,4.702492 7.4335935,5.859375 0.489879,0.188908 1.033559,0.188908 1.523438,0 3.013501,-1.156883 5.605929,-3.199771 7.433593,-5.859375 C 21.523498,13.837685 22.501961,10.684458 22.5,7.4570312 V 2.6152344 C 22.5,2.0545423 22.277394,1.5155183 21.880859,1.1191406 21.484215,0.72278453 20.945518,0.5 20.384766,0.5 Z m 0,1 H 20.384766 c 0.296046,0 0.579707,0.1169686 0.789062,0.3261719 C 21.383093,2.0353536 21.5,2.3195273 21.5,2.6152344 v 4.84375 c 0.0018,3.0250866 -0.915295,5.9790226 -2.628906,8.4726566 -1.713624,2.493651 -4.14293,4.409854 -6.96875,5.49414 -0.258521,0.09969 -0.546167,0.09969 -0.804688,0 C 8.2718167,20.341495 5.842499,18.42529 4.1289062,15.931641 2.4153214,13.438003 1.4981702,10.484067 1.5,7.4589844 v -4.84375 C 1.5,2.3195195 1.6168798,2.0353465 1.8261719,1.8261719 2.0354526,1.6170017 2.3191483,1.5 2.6152344,1.5 Z"
     id="path1" />
</svg>
