<svg width="71" height="68" viewBox="0 0 71 68" fill="none" xmlns="http://www.w3.org/2000/svg">
<path d="M69.1322 11.0143L36.3633 0.139534C35.8027 -0.0465114 35.1967 -0.0465114 34.6361 0.139534L1.86715 11.0143C1.3234 11.1947 0.850481 11.541 0.515372 12.0039C0.180262 12.4668 -4.24709e-05 13.023 7.50395e-09 13.5936V40.7805C7.50395e-09 41.5016 0.287703 42.1931 0.799817 42.7029C1.31193 43.2128 2.00651 43.4992 2.73075 43.4992C3.45498 43.4992 4.14956 43.2128 4.66167 42.7029C5.17379 42.1931 5.46149 41.5016 5.46149 40.7805V17.3658L16.9272 21.1686C13.8809 26.0684 12.9122 31.9714 14.2338 37.5817C15.5554 43.1919 19.0592 48.0507 23.9759 51.0912C17.8318 53.4904 12.5205 57.8301 8.63598 63.7636C8.43396 64.0626 8.29364 64.3985 8.22317 64.7519C8.1527 65.1053 8.15349 65.4691 8.22549 65.8222C8.29749 66.1753 8.43927 66.5106 8.64259 66.8087C8.8459 67.1068 9.1067 67.3616 9.40982 67.5584C9.71293 67.7553 10.0523 67.8902 10.4083 67.9553C10.7642 68.0204 11.1296 68.0144 11.4832 67.9376C11.8368 67.8609 12.1715 67.715 12.468 67.5083C12.7644 67.3016 13.0166 67.0384 13.21 66.7338C18.354 58.8768 26.478 54.374 35.4997 54.374C44.5214 54.374 52.6454 58.8768 57.7894 66.7338C58.1899 67.3265 58.8086 67.7384 59.5118 67.8805C60.2149 68.0226 60.9459 67.8835 61.5469 67.4933C62.1478 67.1031 62.5704 66.493 62.7232 65.7951C62.876 65.0972 62.7467 64.3675 62.3634 63.7636C58.4789 57.8301 53.1471 53.4904 47.0234 51.0912C51.9355 48.0508 55.436 43.1952 56.7573 37.5891C58.0787 31.9829 57.1131 26.0839 54.0722 21.1856L69.1322 16.19C69.6761 16.0096 70.1492 15.6635 70.4844 15.2005C70.8196 14.7376 71 14.1813 71 13.6106C71 13.0399 70.8196 12.4837 70.4844 12.0208C70.1492 11.5578 69.6761 11.2116 69.1322 11.0313V11.0143ZM51.8842 32.6245C51.8849 35.2033 51.2715 37.7456 50.0942 40.0428C48.917 42.3399 47.2094 44.3264 45.1117 45.8393C43.014 47.3522 40.5858 48.3484 38.0265 48.7461C35.4672 49.1438 32.8496 48.9317 30.3886 48.1272C27.9275 47.3228 25.6931 45.9488 23.8687 44.1181C22.0443 42.2875 20.6819 40.0522 19.8932 37.5958C19.1045 35.1394 18.912 32.5318 19.3316 29.987C19.7511 27.4422 20.7708 25.0327 22.3068 22.9561L34.6361 27.0342C35.1967 27.2202 35.8027 27.2202 36.3633 27.0342L48.6926 22.9561C50.7672 25.7564 51.8858 29.1449 51.8842 32.6245ZM35.4997 21.6036L11.3667 13.5936L35.4997 5.58371L59.6327 13.5936L35.4997 21.6036Z" fill="white"/>
</svg>
