<svg width="58" height="59" viewBox="0 0 58 59" fill="none" xmlns="http://www.w3.org/2000/svg">
<path d="M52.3415 44.25C53.8422 44.25 55.2815 43.6284 56.3427 42.5219C57.4038 41.4155 58 39.9148 58 38.35V5.9C58 4.33522 57.4038 2.83453 56.3427 1.72807C55.2815 0.621605 53.8422 0 52.3415 0H22.521C23.5112 1.7995 24.0488 3.835 24.0488 5.9H52.3415V38.35H26.878V44.25M38.1951 14.75V20.65H21.2195V59H15.561V41.3H9.90244V59H4.2439V35.4H0V20.65C0 19.0852 0.596165 17.5845 1.65735 16.4781C2.71853 15.3716 4.1578 14.75 5.65854 14.75H38.1951ZM18.3902 5.9C18.3902 7.46478 17.7941 8.96547 16.7329 10.0719C15.6717 11.1784 14.2324 11.8 12.7317 11.8C11.231 11.8 9.7917 11.1784 8.73052 10.0719C7.66934 8.96547 7.07317 7.46478 7.07317 5.9C7.07317 4.33522 7.66934 2.83453 8.73052 1.72807C9.7917 0.621605 11.231 0 12.7317 0C14.2324 0 15.6717 0.621605 16.7329 1.72807C17.7941 2.83453 18.3902 4.33522 18.3902 5.9Z" fill="white"/>
</svg>
