<?xml version="1.0" encoding="UTF-8" standalone="no"?>
<svg
   width="23"
   height="22"
   viewBox="0 0 23 22"
   fill="none"
   version="1.1"
   id="svg1"
   sodipodi:docname="Time.svg"
   inkscape:version="1.3 (0e150ed6c4, 2023-07-21)"
   xmlns:inkscape="http://www.inkscape.org/namespaces/inkscape"
   xmlns:sodipodi="http://sodipodi.sourceforge.net/DTD/sodipodi-0.dtd"
   xmlns="http://www.w3.org/2000/svg"
   xmlns:svg="http://www.w3.org/2000/svg">
  <defs
     id="defs1" />
  <sodipodi:namedview
     id="namedview1"
     pagecolor="#ffffff"
     bordercolor="#000000"
     borderopacity="0.25"
     inkscape:showpageshadow="2"
     inkscape:pageopacity="0.0"
     inkscape:pagecheckerboard="0"
     inkscape:deskcolor="#d1d1d1"
     inkscape:zoom="35.318182"
     inkscape:cx="11.509653"
     inkscape:cy="11"
     inkscape:window-width="1920"
     inkscape:window-height="991"
     inkscape:window-x="-9"
     inkscape:window-y="-9"
     inkscape:window-maximized="1"
     inkscape:current-layer="svg1" />
  <g
     id="path1">
    <path
       style="color:#000000;fill:#ffffff;-inkscape-stroke:none"
       d="m 10.0499,11 v 2e-4 c 1e-4,0.4906 0.1951,0.961 0.5421,1.3079 l 3.2999,3.2999 -10e-5,10e-5 0.0094,0.0091 c 0.3489,0.337 0.8162,0.5234 1.3013,0.5192 0.485,-0.0042 0.949,-0.1988 1.292,-0.5418 0.343,-0.343 0.5376,-0.807 0.5418,-1.292 0.0042,-0.4851 -0.1822,-0.9524 -0.5192,-1.3013 v -10e-5 L 16.5079,12.992 13.7499,10.2339 V 5.5 C 13.7499,5.00935 13.555,4.53879 13.208,4.19185 12.8611,3.84491 12.3906,3.65 11.8999,3.65 11.4093,3.65 10.9387,3.84491 10.5918,4.19185 10.2448,4.53879 10.0499,5.00935 10.0499,5.5 Z m 1.85,-10.25 c 5.6611,0 10.25,4.58891 10.25,10.25 0,5.6611 -4.5889,10.25 -10.25,10.25 -5.66108,0 -10.25,-4.5889 -10.25,-10.25 0,-5.66109 4.58892,-10.25 10.25,-10.25 z"
       id="path2" />
    <path
       style="color:#000000;fill:#484c52;-inkscape-stroke:none"
       d="M 11.900391,0 C 5.8340133,0 0.90039063,4.9336125 0.90039063,11 c -10e-9,6.066397 4.93362357,11 11.00000037,11 6.066395,0 11,-4.933605 11,-11 0,-6.0663857 -4.933604,-11 -11,-11 z m 0,1.5 c 5.255792,0 9.5,4.2442171 9.5,9.5 0,5.255794 -4.244207,9.5 -9.5,9.5 -5.2557726,0 -9.5000004,-4.244208 -9.5000004,-9.5 0,-5.2557812 4.2442287,-9.5 9.5000004,-9.5 z m 0,1.4003906 c -0.689244,0 -1.352452,0.2742709 -1.839844,0.7617188 C 9.5730607,4.1495112 9.3007813,4.8107366 9.3007813,5.5 V 11 c 1.404e-4,0.689238 0.2743293,1.350642 0.7617187,1.837891 l 2.769531,2.769531 -0.0098,0.0098 0.539062,0.521484 0.01758,0.01758 h 0.002 c 0.490193,0.473474 1.146753,0.736368 1.828125,0.730469 0.681454,-0.0059 1.334563,-0.279875 1.816407,-0.761719 0.481844,-0.481844 0.755817,-1.134953 0.761718,-1.816406 0.0059,-0.681373 -0.256995,-1.337932 -0.730468,-1.828125 L 17.039062,12.460938 14.5,9.9238281 V 5.5 C 14.5,4.8107366 14.225767,4.1495112 13.738281,3.6621094 13.250941,3.1747125 12.589694,2.9003906 11.900391,2.9003906 Z m 5.15625,9.5800784 0.210937,0.521484 v -0.310547 z m -5.15625,-8.0800784 c 0.292095,0 0.570885,0.1157833 0.777343,0.3222656 C 12.884248,4.9291337 13,5.2079644 13,5.5 v 5.044922 l 2.767578,2.765625 v -0.0059 l 0.210938,0.216796 c 0.200525,0.207607 0.311094,0.486565 0.308593,0.775391 -0.0025,0.288546 -0.11811,0.563423 -0.322265,0.767578 -0.204156,0.204155 -0.480986,0.319767 -0.769531,0.322266 -0.287317,0.0025 -0.562287,-0.108098 -0.769532,-0.306641 -6.35e-4,-6.08e-4 -0.0013,-0.0013 -0.002,-0.002 h -0.002 l -0.0078,-0.0098 -3.291016,-3.291015 C 10.916437,11.570793 10.800841,11.291961 10.800781,11 V 5.5 c 0,-0.2920356 0.115753,-0.5708663 0.322266,-0.7773438 0.206408,-0.2064314 0.485388,-0.3222656 0.777344,-0.3222656 z"
       id="path3" />
  </g>
</svg>
